<?xml version="1.0" standalone="no"?>
<!DOCTYPE svg PUBLIC "-//W3C//DTD SVG 1.1//EN" "http://www.w3.org/Graphics/SVG/1.1/DTD/svg11.dtd">
<svg version="1.1" xmlns="http://www.w3.org/2000/svg" viewBox="0 0 107.5 133.06442169352985" width="107.5" height="133.06442169352985" filter="invert(93%) hue-rotate(180deg)"><!-- svg-source:excalidraw --><metadata></metadata><defs><style class="style-fonts">
      </style></defs><g stroke-linecap="round" transform="translate(10 33.57747094316866) rotate(0 43.75 33.96993061351395)"><path d="M39.76 0.6 C47.69 -0.51, 58.93 1.63, 66.33 4.86 C73.73 8.09, 80.97 13.99, 84.14 19.98 C87.32 25.96, 87.23 34.04, 85.39 40.76 C83.55 47.49, 79.31 55.71, 73.1 60.32 C66.89 64.94, 56.69 67.89, 48.14 68.44 C39.59 68.99, 29.35 67.08, 21.79 63.61 C14.23 60.13, 6.07 53.83, 2.75 47.57 C-0.56 41.31, -0.02 32.69, 1.92 26.05 C3.86 19.42, 7.16 12, 14.41 7.78 C21.67 3.56, 39.23 1.74, 45.45 0.72 C51.67 -0.3, 51.7 1.36, 51.73 1.66 M26.65 2.44 C33.87 -0.4, 44.06 -0.68, 52.34 0.77 C60.61 2.22, 70.35 6.03, 76.3 11.13 C82.25 16.23, 87.24 24.79, 88.02 31.36 C88.8 37.93, 85.27 44.97, 80.97 50.54 C76.68 56.12, 70.3 62.2, 62.26 64.82 C54.22 67.44, 41.42 67.92, 32.74 66.26 C24.07 64.6, 15.59 59.79, 10.19 54.86 C4.79 49.93, 0.77 42.95, 0.35 36.71 C-0.06 30.46, 3.28 22.99, 7.7 17.38 C12.11 11.78, 23.47 5.3, 26.87 3.07 C30.27 0.83, 27.79 3.48, 28.09 3.98" stroke="#1e1e1e" stroke-width="2" fill="none"></path></g><g stroke-linecap="round"><g transform="translate(31.788537549407124 44.7003685776821) rotate(0 9.899522203376364 11.606821158205776)"><path d="M0.58 -0.98 C3.97 3.05, 17.17 20.21, 20.38 24.19 M-0.58 1.13 C2.74 4.79, 16.65 18.53, 19.96 22.3" stroke="#1e1e1e" stroke-width="2" fill="none"></path></g></g><mask></mask><g stroke-linecap="round"><g transform="translate(53.23122529644269 66.04430728174839) rotate(0 6.230803136794606 -3.7236993162691476)"><path d="M0.48 -0.48 C2.64 -1.83, 10.47 -6.67, 12.4 -7.91 M0.06 0.47 C2.22 -0.84, 10.19 -6.08, 12.12 -7.42" stroke="#1e1e1e" stroke-width="2" fill="none"></path></g></g><mask></mask><g stroke-linecap="round"><g transform="translate(55.6521739130435 25.76138071351059) rotate(0 -0.0732365528971286 -7.948843752165928)"><path d="M-0.46 -0.14 C-0.45 -2.82, 0.11 -13.25, 0.19 -15.76 M0.31 -0.68 C0.28 -3.31, 0.11 -12.57, 0.03 -15.13" stroke="#1e1e1e" stroke-width="2" fill="none"></path></g></g><mask></mask><g stroke-linecap="round"><g transform="translate(52.936257068493546 123.24170615311331) rotate(0 -0.08788368726851559 -7.869139658232825)"><path d="M0.19 -0.18 C0.24 -2.85, 0.08 -12.97, -0.04 -15.56 M-0.37 -0.74 C-0.35 -3.09, -0.22 -12.41, -0.32 -14.83" stroke="#1e1e1e" stroke-width="2" fill="none"></path></g></g><mask></mask></svg>